<svg width="100" height="100" viewBox="0 0 100 100" fill="none" xmlns="http://www.w3.org/2000/svg">
<path d="M100 50C100 77.6142 77.6142 100 50 100C22.3858 100 0 77.6142 0 50C0 22.3858 22.3858 0 50 0C77.6142 0 100 22.3858 100 50ZM25 50C25 63.8071 36.1929 75 50 75C63.8071 75 75 63.8071 75 50C75 36.1929 63.8071 25 50 25C36.1929 25 25 36.1929 25 50Z" fill="#D9D9D9"/>
<path d="M3.95794 69.4969C0.463577 61.2449 -0.748807 52.2055 0.447643 43.3244C1.64409 34.4433 5.2054 26.0469 10.7589 19.0139C16.3125 11.9808 23.6541 6.56959 32.0157 3.34633C40.3773 0.123061 49.4515 -0.793746 58.2888 0.691832C67.1262 2.17741 75.4018 6.01077 82.2499 11.7908C89.098 17.5709 94.2669 25.0852 97.2156 33.5475C100.164 42.0098 100.785 51.109 99.0115 59.8932C97.2383 68.6774 93.137 76.8236 87.1366 83.4794L68.5683 66.7397C71.5685 63.4118 73.6192 59.3387 74.5057 54.9466C75.3923 50.5545 75.0822 46.0049 73.6078 41.7737C72.1334 37.5426 69.549 33.7854 66.125 30.8954C62.7009 28.0054 58.5631 26.0887 54.1444 25.3459C49.7257 24.6031 45.1886 25.0615 41.0079 26.6732C36.8271 28.2848 33.1562 30.9904 30.3795 34.5069C27.6027 38.0235 25.822 42.2216 25.2238 46.6622C24.6256 51.1027 25.2318 55.6225 26.979 59.7484L3.95794 69.4969Z" fill="#012DE7"/>
</svg>
